<?xml version="1.0" standalone="no"?>
<!DOCTYPE svg PUBLIC "-//W3C//DTD SVG 20010904//EN"
 "http://www.w3.org/TR/2001/REC-SVG-20010904/DTD/svg10.dtd">
<svg version="1.0" xmlns="http://www.w3.org/2000/svg"
 width="987.000000pt" height="987.000000pt" viewBox="0 0 987.000000 987.000000"
 preserveAspectRatio="xMidYMid meet">
<metadata>
Created by potrace 1.11, written by Peter Selinger 2001-2013
</metadata>
<g transform="translate(0.000000,987.000000) scale(0.100000,-0.100000)"
fill="#000000" stroke="none">
<path d="M4659 9866 c-2 -2 -51 -6 -109 -10 -58 -3 -116 -8 -130 -10 -14 -2
-52 -7 -85 -11 -59 -6 -276 -40 -325 -50 -14 -3 -45 -10 -70 -15 -683 -136
-1388 -452 -1955 -878 -58 -44 -195 -152 -205 -162 -3 -3 -39 -34 -80 -70
-131 -112 -371 -350 -451 -445 -19 -22 -41 -47 -49 -55 -73 -70 -440 -567
-440 -595 0 -4 -11 -21 -24 -38 -13 -18 -35 -52 -49 -77 -233 -407 -349 -674
-497 -1145 -35 -114 -123 -516 -136 -625 -3 -25 -7 -56 -9 -70 -2 -14 -6 -47
-10 -75 -3 -27 -8 -63 -10 -80 -20 -149 -28 -704 -12 -890 10 -130 25 -267 31
-301 2 -11 7 -44 11 -74 11 -83 62 -340 91 -454 228 -902 685 -1690 1358
-2345 89 -87 135 -129 251 -230 126 -110 458 -351 577 -420 18 -10 85 -49 148
-86 123 -73 338 -182 460 -235 41 -18 93 -40 115 -50 225 -99 679 -235 960
-285 60 -11 206 -35 243 -40 23 -3 59 -7 80 -10 39 -5 80 -9 227 -22 175 -15
768 -8 871 11 11 2 51 7 89 11 39 4 78 9 89 11 10 2 39 6 64 9 26 3 54 7 62 9
8 3 32 7 54 11 61 9 234 45 321 67 44 11 87 21 95 23 40 9 206 60 300 91 542
184 1084 482 1513 831 195 158 450 398 557 523 12 14 36 41 54 60 18 19 67 77
110 129 376 454 684 1007 871 1566 64 190 147 508 171 654 2 14 9 49 14 76 10
51 24 146 35 245 3 30 8 66 10 80 27 184 27 801 0 1025 -2 17 -6 57 -10 90
-10 92 -12 103 -29 205 -86 501 -235 958 -452 1393 -122 244 -206 384 -404
671 -213 310 -606 725 -925 977 -44 35 -82 66 -85 69 -3 4 -54 42 -114 85
-604 432 -1238 706 -1971 851 -23 4 -179 30 -243 39 -60 9 -87 12 -177 20 -44
4 -89 9 -100 12 -23 6 -670 15 -676 9z m506 -610 c77 -4 154 -8 170 -11 17 -2
59 -7 95 -11 85 -9 96 -10 220 -30 645 -103 1335 -398 1865 -798 226 -170 529
-451 692 -641 578 -677 934 -1488 1028 -2345 3 -30 8 -71 10 -90 21 -182 22
-555 0 -785 -6 -73 -31 -271 -39 -312 -3 -11 -7 -38 -10 -58 -14 -85 -69 -324
-98 -419 -16 -56 -31 -108 -33 -116 -9 -39 -101 -288 -147 -395 -169 -393
-370 -722 -657 -1075 -106 -129 -403 -430 -531 -536 -438 -365 -901 -627
-1412 -798 -141 -47 -378 -115 -458 -130 -14 -3 -50 -10 -80 -15 -30 -6 -66
-13 -80 -16 -14 -3 -36 -7 -50 -10 -14 -2 -45 -7 -70 -10 -25 -4 -56 -8 -70
-10 -147 -21 -409 -39 -575 -38 -114 1 -363 12 -394 18 -10 2 -50 6 -90 10
-40 3 -80 8 -89 10 -9 1 -39 6 -67 9 -74 10 -299 55 -390 78 -44 11 -87 21
-95 23 -120 28 -387 121 -565 197 -143 61 -457 219 -486 244 -8 8 -19 14 -23
14 -12 0 -288 183 -379 251 -242 182 -549 470 -729 685 -408 487 -700 1043
-867 1649 -38 139 -86 354 -96 430 -3 22 -7 49 -9 60 -2 11 -7 45 -11 75 -3
30 -8 66 -10 80 -4 27 -14 137 -20 210 -5 64 -5 495 -1 555 8 100 17 201 21
225 2 14 6 48 10 75 9 81 40 264 49 293 3 9 8 33 11 52 3 19 8 43 11 52 3 9 6
25 8 35 35 174 169 568 266 778 80 174 175 351 285 528 92 149 291 414 416
554 527 590 1181 1019 1917 1257 130 42 309 91 372 102 14 3 41 9 60 14 41 10
199 38 262 46 24 2 52 7 63 9 11 2 49 7 85 10 36 4 76 8 90 11 14 2 93 7 175
10 83 4 151 7 152 8 3 2 160 -2 298 -8z"/>
<path d="M4758 8725 c-2 -1 -34 -5 -73 -8 -140 -13 -321 -49 -480 -98 -531
-163 -1004 -518 -1319 -991 -72 -109 -216 -376 -216 -402 0 -7 -50 -35 -111
-64 -622 -290 -1107 -845 -1308 -1497 -29 -94 -53 -192 -65 -260 -3 -16 -10
-54 -16 -83 -25 -132 -34 -476 -17 -642 42 -419 210 -855 459 -1193 240 -324
547 -582 905 -757 l149 -73 33 -78 c39 -92 138 -268 209 -371 272 -391 654
-701 1087 -881 72 -30 227 -85 258 -91 12 -3 67 -16 122 -30 55 -13 120 -27
145 -31 25 -4 54 -9 65 -11 63 -12 190 -19 340 -19 233 0 307 7 530 51 197 39
465 139 659 246 82 45 238 144 276 175 8 6 51 41 95 76 276 222 509 518 669
849 33 70 66 128 71 128 22 0 283 137 370 194 230 150 420 320 585 525 19 24
40 48 45 55 36 39 162 237 228 357 128 236 235 591 265 883 14 141 7 493 -12
593 -3 11 -7 43 -11 70 -11 82 -64 289 -101 395 -53 151 -124 303 -215 458
-89 152 -239 340 -387 487 -146 144 -259 231 -492 378 -48 30 -262 135 -275
135 -6 0 -35 51 -64 113 -65 139 -138 263 -227 387 -37 52 -70 97 -73 100 -3
3 -31 34 -61 70 -90 108 -257 267 -370 353 -121 92 -238 165 -385 241 -200
104 -493 201 -695 231 -25 4 -58 9 -75 12 -83 13 -196 20 -347 20 -92 1 -168
0 -170 -2z m437 -620 c700 -108 1278 -593 1494 -1251 21 -63 42 -118 47 -123
5 -4 32 -14 59 -21 28 -7 100 -33 160 -57 846 -337 1323 -1246 1119 -2133
-143 -621 -616 -1140 -1223 -1341 -72 -23 -129 -44 -127 -47 9 -9 -78 -242
-129 -347 -271 -553 -818 -946 -1420 -1020 -109 -13 -144 -15 -240 -15 -364 1
-703 102 -1005 298 -288 186 -532 467 -672 772 -42 91 -119 305 -112 312 2 2
-54 23 -124 46 -117 39 -333 137 -340 154 -2 5 -9 8 -15 8 -6 0 -45 23 -86 52
-330 224 -558 507 -705 872 -37 91 -81 239 -92 311 -3 22 -7 42 -9 45 -2 3 -6
37 -10 75 -4 39 -9 79 -11 90 -5 26 -4 267 1 322 7 80 36 228 61 322 159 584
630 1078 1199 1260 55 18 106 35 113 39 7 4 30 59 52 123 190 571 640 1011
1215 1190 98 30 186 49 320 69 57 8 419 5 480 -5z"/>
<path d="M4373 7244 c-35 -8 -76 -20 -93 -29 -16 -8 -31 -14 -33 -13 -2 2 -31
-14 -64 -34 -116 -72 -209 -201 -228 -317 -7 -44 -10 -389 -3 -396 1 -2 134
95 293 216 160 120 397 299 527 396 130 98 237 181 238 185 0 13 -570 5 -637
-8z"/>
<path d="M5235 6994 c-170 -129 -317 -240 -325 -247 -8 -6 -152 -115 -320
-242 -168 -126 -381 -287 -475 -358 l-170 -129 2 -49 1 -49 -67 0 c-64 0 -68
-1 -136 -53 -39 -29 -252 -190 -475 -358 -223 -168 -452 -341 -510 -385 -58
-43 -114 -87 -126 -97 -21 -18 -22 -27 -22 -217 l-1 -199 107 80 c59 44 114
85 122 92 8 7 141 107 295 223 360 271 626 472 645 487 8 7 157 119 330 250
173 130 432 325 575 433 143 108 368 278 500 377 132 100 242 183 245 186 3 4
95 73 204 155 l200 149 -60 56 c-58 55 -154 113 -204 124 -21 4 -77 -34 -335
-229z"/>
<path d="M5866 6642 c-27 -20 -62 -46 -77 -57 -43 -31 -383 -289 -389 -295 -3
-3 -185 -140 -405 -305 -220 -165 -402 -303 -405 -306 -3 -3 -104 -79 -225
-169 -121 -91 -222 -167 -225 -170 -3 -3 -115 -88 -250 -190 -135 -101 -366
-276 -515 -388 -148 -113 -366 -277 -482 -365 -117 -88 -213 -165 -213 -172 0
-32 102 -151 168 -197 l43 -30 54 39 c29 21 143 106 252 188 210 160 685 519
1124 850 419 316 503 379 519 392 8 7 255 193 548 414 l532 401 0 199 c0 110
-1 199 -2 199 -2 0 -25 -17 -52 -38z"/>
<path d="M3075 5919 c-77 -5 -102 -11 -166 -42 -97 -47 -183 -135 -233 -239
-36 -77 -64 -173 -53 -184 3 -3 25 9 49 28 24 19 163 125 310 235 l267 201
-42 4 c-23 1 -83 0 -132 -3z"/>
<path d="M6035 5920 c-32 -5 -86 -41 -285 -190 -135 -102 -247 -187 -250 -190
-3 -3 -106 -81 -230 -174 -214 -161 -469 -354 -915 -691 -110 -83 -292 -220
-405 -305 -113 -85 -207 -157 -210 -160 -3 -3 -77 -59 -165 -124 -88 -65 -164
-123 -169 -127 -6 -5 105 -9 255 -9 l265 0 140 106 c76 58 150 114 164 124 14
10 185 139 380 287 195 147 470 354 610 460 140 106 260 196 265 200 6 5 118
90 250 189 132 100 337 254 455 344 118 89 243 183 277 209 34 25 60 47 58 49
-6 6 -448 7 -490 2z"/>
<path d="M6973 5827 c-15 -13 -176 -135 -358 -272 -181 -137 -411 -310 -510
-385 -173 -131 -452 -342 -1025 -774 -146 -110 -277 -209 -292 -220 -14 -12
-39 -31 -55 -42 -15 -12 -93 -71 -173 -131 -80 -60 -248 -187 -375 -283 -126
-95 -232 -174 -234 -176 -2 -2 -4 -246 -2 -371 l1 -33 108 83 c59 45 224 170
367 277 143 107 262 197 265 200 3 3 106 81 230 174 124 94 297 224 385 291
88 67 291 220 450 340 160 120 380 287 490 370 110 83 367 276 570 429 204
154 376 284 383 291 10 9 8 22 -15 66 -27 52 -150 189 -171 189 -6 0 -23 -10
-39 -23z"/>
<path d="M6874 4924 c-208 -157 -514 -387 -679 -512 -165 -124 -312 -235 -326
-246 -14 -12 -38 -30 -53 -41 -30 -22 -293 -221 -756 -571 -168 -126 -453
-342 -635 -479 -181 -136 -336 -254 -344 -261 -13 -12 -12 -17 10 -40 60 -66
248 -158 281 -138 7 4 121 89 253 189 132 100 323 244 425 320 102 77 187 142
190 145 3 3 157 119 343 259 l337 253 0 74 0 74 97 0 97 0 499 376 c274 206
531 401 571 431 l73 56 1 199 c0 109 -1 198 -2 198 -2 0 -173 -129 -382 -286z"/>
<path d="M7204 4347 c-16 -13 -141 -108 -278 -210 l-248 -187 79 0 c174 0 316
81 412 234 30 49 77 173 68 182 -2 3 -17 -6 -33 -19z"/>
<path d="M5755 3254 c-82 -63 -256 -194 -385 -291 -129 -98 -237 -180 -240
-183 -3 -3 -41 -32 -85 -64 -44 -33 -92 -70 -107 -82 l-28 -22 278 2 c301 3
329 7 449 61 97 45 201 146 245 242 32 68 32 68 36 261 2 105 0 192 -5 191 -4
0 -75 -52 -158 -115z"/>
</g>
</svg>
